<svg width="40" height="40" viewBox="0 0 40 40" fill="none" xmlns="http://www.w3.org/2000/svg">
<path d="M6.66602 23.3333H36.666" stroke="#1E1E1E" stroke-width="1.5" stroke-linecap="round" stroke-linejoin="round"/>
<path d="M8.33398 36.6666L9.88492 35.1156C10.7662 34.2344 11.2068 33.7938 11.7621 33.5433C12.3173 33.2926 12.9392 33.2538 14.1831 33.1761L19.6038 32.8373C22.268 32.6708 23.6002 32.5874 24.7723 32.0246C25.9447 31.4616 26.8425 30.4739 28.638 28.4988L33.334 23.3333H27.5007L24.5125 26.3214C24.3138 26.5201 24.2143 26.6196 24.111 26.7073C23.5793 27.1589 22.9193 27.4323 22.2242 27.4889C22.0888 27.4999 21.9483 27.4999 21.6673 27.4999M21.6673 27.4999C21.6673 26.7254 21.6673 26.3383 21.6033 26.0163C21.3403 24.6939 20.3067 23.6603 18.9843 23.3973C18.6623 23.3333 18.2752 23.3333 17.5007 23.3333H16.1981C14.4564 23.3333 13.5855 23.3333 12.7689 23.5433C12.1606 23.6996 11.5775 23.9411 11.0368 24.2606C10.3109 24.6896 9.69513 25.3054 8.46355 26.5371L3.33398 31.6666M21.6673 27.4999H15.834" stroke="#1E1E1E" stroke-width="1.5" stroke-linecap="round" stroke-linejoin="round"/>
<path d="M8.33398 19.1666C8.33398 11.8028 14.3035 5.83325 21.6673 5.83325M21.6673 5.83325C29.0312 5.83325 35.0007 11.8028 35.0007 19.1666M21.6673 5.83325V3.33325" stroke="#1E1E1E" stroke-width="1.5" stroke-linecap="round" stroke-linejoin="round"/>
</svg>
