<svg width="40" height="40" viewBox="0 0 40 40" fill="none" xmlns="http://www.w3.org/2000/svg">
<path d="M16.6667 15.4253C12.6772 13.2638 8.4676 9.52372 5 3.33325M19.3592 7.36494C15.9675 5.13909 11.829 6.06934 10.1156 9.4427C8.40223 12.8161 9.76273 17.3551 13.1544 19.5809C16.225 21.5961 22.9453 23.6798 28.3333 17.9083C23.2843 15.7581 22.7508 9.59077 19.3592 7.36494Z" stroke="#1E1E1E" stroke-width="1.5" stroke-linecap="round" stroke-linejoin="round"/>
<path d="M6.66667 18.3333C5.60155 19.1181 5 20.0089 5 20.9533C5 24.1086 11.7157 26.6666 20 26.6666C28.2843 26.6666 35 24.1086 35 20.9533C35 20.0089 34.3985 19.1181 33.3333 18.3333" stroke="#1E1E1E" stroke-width="1.5" stroke-linecap="round"/>
<path d="M35 21.6667C35 27.6277 30.8227 32.8579 26.3252 35.8037C25.4003 36.4096 24.3007 36.6667 23.1952 36.6667H16.8048C15.6993 36.6667 14.5996 36.4096 13.6748 35.8037C9.17733 32.8579 5 27.6277 5 21.6667" stroke="#1E1E1E" stroke-width="1.5" stroke-linecap="round"/>
</svg>
