<svg width="40" height="40" viewBox="0 0 40 40" fill="none" xmlns="http://www.w3.org/2000/svg">
<g clip-path="url(#clip0_1330_98950)">
<path d="M6.88637 35.1598C8.52337 35.7512 10.2516 36.05 11.9921 36.0427C13.8928 36.0361 15.7788 35.7113 17.5721 35.0817C21.1769 33.8279 24.17 31.4947 26 28.512C27.8548 25.4891 28.298 22.1619 27.2481 19.1433C27.2277 19.0858 27.2043 19.0295 27.1778 18.9745C27.4412 19.161 27.7428 19.2867 28.0608 19.3425C28.3787 19.3982 28.7051 19.3826 29.0163 19.2969L38.9368 14.4831C39.1609 14.3754 39.3614 14.2242 39.5266 14.0382C39.6917 13.8523 39.8183 13.6353 39.8988 13.4C39.9793 13.1647 40.0121 12.9157 39.9955 12.6676C39.9788 12.4194 39.913 12.1771 39.8018 11.9546L39.6553 11.6619C39.4394 11.2282 39.0637 10.8951 38.6072 10.7327C38.1507 10.5703 37.649 10.5912 37.2076 10.7911L27.8654 15.0567C27.3999 15.1859 26.9897 15.4643 26.6978 15.8493C26.406 16.2343 26.2486 16.7044 26.25 17.1875C26.2499 17.4355 26.2921 17.6817 26.375 17.9155L26.1911 18.038C23.7387 16.8115 17.7909 17.8003 12.2337 19.7334C11.9072 19.8469 11.5817 19.9639 11.2571 20.0845C10.643 17.8092 12.2323 16.1532 12.3188 16.0655L11.4333 15.1833C10.8277 15.8382 10.3747 16.6192 10.1068 17.4701C9.7906 18.4667 9.78186 19.5356 10.0818 20.5373C9.08176 20.9366 8.12082 21.3587 7.21152 21.7973C6.70723 19.9253 6.66246 17.9938 6.73113 16.598C6.74461 16.3162 6.70164 16.0347 6.60477 15.7698C6.5079 15.5049 6.35907 15.2621 6.16702 15.0555C5.97498 14.8489 5.74359 14.6828 5.48645 14.567C5.22931 14.4511 4.95161 14.3878 4.66966 14.3807C4.3877 14.3737 4.10718 14.423 3.84458 14.5259C3.58197 14.6288 3.34257 14.7831 3.14044 14.9798C2.93832 15.1765 2.77754 15.4116 2.66755 15.6714C2.55756 15.9311 2.50058 16.2101 2.49996 16.4922V20.9125C2.49978 21.002 2.4641 21.0878 2.40077 21.1511C2.33743 21.2143 2.25159 21.2499 2.16207 21.25C1.95276 21.2499 1.74551 21.2912 1.55223 21.3716C1.35895 21.4519 1.18347 21.5697 1.03588 21.7181C0.888296 21.8665 0.771516 22.0426 0.692265 22.2364C0.613013 22.4301 0.572855 22.6376 0.574102 22.8469C0.60181 23.861 0.78252 24.865 1.11012 25.8252C0.153789 26.849 -0.188242 27.777 0.0937112 28.5879C1.14379 31.6065 3.55613 33.9405 6.88637 35.1598ZM17.1615 33.9007C13.8286 35.06 10.3321 35.0904 7.31613 33.9861C5.0877 33.1702 3.32395 31.8059 2.19113 30.0537C2.84465 30.1816 3.50966 30.2414 4.17551 30.2323C4.55837 30.2323 4.96723 30.2174 5.40207 30.1876C7.55699 30.0398 10.1504 29.5256 12.8721 28.7176C12.9268 28.7263 14.4171 28.2381 15.1086 27.9977C16.6856 27.4518 18.2334 26.8247 19.7456 26.1188L19.7775 26.104C21.4125 25.3345 22.8757 24.5162 24.0789 23.6912C25.1553 22.9532 25.9662 22.2548 26.5114 21.596C26.9816 26.5872 23.1688 31.8112 17.1615 33.9007ZM23.6683 21.3226C23.5366 22.4429 23.3172 22.6737 23.308 22.683L23.3201 22.6951C22.8027 23.0474 22.2352 23.3988 21.6248 23.7456C22.0326 22.9384 22.3021 22.0684 22.4218 21.1719C22.4425 21.0205 22.5172 20.8817 22.6322 20.7812C22.7472 20.6807 22.8948 20.6252 23.0475 20.625C23.1358 20.625 23.223 20.6436 23.3035 20.6797C23.384 20.7158 23.456 20.7686 23.5146 20.8345C23.5733 20.9004 23.6173 20.978 23.6438 21.0621C23.6703 21.1463 23.6787 21.2351 23.6685 21.3227L23.6683 21.3226ZM37.7228 11.9297C37.8698 11.8634 38.0368 11.8567 38.1887 11.9109C38.3405 11.9651 38.4655 12.0761 38.5373 12.2205L38.6837 12.5132C38.7209 12.5876 38.7429 12.6687 38.7484 12.7517C38.7538 12.8347 38.7426 12.918 38.7155 12.9966C38.6884 13.0752 38.6458 13.1477 38.5903 13.2096C38.5349 13.2716 38.4676 13.3219 38.3924 13.3575L30.6239 17.1418C30.6175 16.8328 30.5456 16.5286 30.4129 16.2494C30.2802 15.9703 30.0898 15.7225 29.8541 15.5224L37.7228 11.9297ZM28.4375 16.25C28.633 16.2498 28.8238 16.3108 28.9829 16.4245C29.1421 16.5381 29.2616 16.6988 29.3248 16.8839C29.388 17.069 29.3916 17.2692 29.3352 17.4565C29.2788 17.6437 29.1652 17.8086 29.0103 17.928L28.6665 18.0956C28.5553 18.125 28.4395 18.1324 28.3255 18.1177L28.4719 18.0201C28.5411 17.9749 28.6006 17.9165 28.6471 17.8483C28.6936 17.78 28.726 17.7032 28.7426 17.6222C28.7592 17.5413 28.7596 17.4579 28.7438 17.3769C28.728 17.2958 28.6962 17.2187 28.6504 17.15C28.6046 17.0812 28.5456 17.0223 28.4769 16.9765C28.4081 16.9307 28.331 16.899 28.2499 16.8832C28.1688 16.8674 28.0854 16.8678 28.0045 16.8845C27.9236 16.9011 27.8468 16.9336 27.7786 16.9801L27.5014 17.1648C27.5074 16.9204 27.6086 16.6881 27.7835 16.5172C27.9583 16.3463 28.193 16.2504 28.4375 16.25ZM11.3948 22.9002L12.3551 22.0999C12.1282 21.8296 11.9243 21.5406 11.7457 21.2361C12.0442 21.1259 12.3437 21.0185 12.6442 20.9139C16.0621 19.7251 19.3942 18.9709 22.0256 18.7904C23.25 18.7065 24.2821 18.7554 25.01 18.932C25.6022 19.0756 25.9776 19.2964 26.0671 19.5537C26.1565 19.8109 25.9991 20.217 25.6239 20.6971C25.4068 20.9682 25.1683 21.2214 24.9107 21.4544C24.9635 20.9635 24.8208 20.4715 24.5135 20.0851C24.2062 19.6986 23.7591 19.4487 23.2689 19.3895C22.7788 19.3303 22.285 19.4665 21.8945 19.7687C21.5041 20.0709 21.2483 20.5147 21.1827 21.0041C20.8652 23.3409 19.4838 24.7027 19.0985 25.0417C17.6621 25.7068 16.1932 26.2993 14.6973 26.817C14.0597 27.0388 13.4265 27.2451 12.7976 27.4359C10.3283 26.9594 8.58238 25.4672 7.60473 22.9947C8.53691 22.54 9.52973 22.1028 10.5643 21.69C10.8009 22.1196 11.0791 22.5249 11.3948 22.9002ZM1.92184 22.5998C1.95323 22.5681 1.99065 22.5429 2.0319 22.5257C2.07315 22.5086 2.1174 22.4998 2.16207 22.5C2.58306 22.4995 2.98667 22.3321 3.28435 22.0344C3.58204 21.7367 3.74949 21.3331 3.74996 20.9121V16.4922C3.75011 16.2622 3.84152 16.0418 4.00411 15.8792C4.16671 15.7166 4.3872 15.6251 4.61715 15.625C4.73471 15.6251 4.85103 15.649 4.95904 15.6954C5.06706 15.7418 5.16451 15.8097 5.24547 15.895C5.32643 15.9802 5.38922 16.081 5.43001 16.1913C5.47081 16.3015 5.48876 16.4189 5.48277 16.5363C5.3934 18.3522 5.48629 21.0236 6.43645 23.438C6.98371 24.8287 7.75777 25.973 8.73699 26.8391C9.29464 27.3309 9.92227 27.7371 10.5993 28.0444C9.16991 28.4142 7.71667 28.685 6.24996 28.8548L5.72785 28.7585C4.33191 28.5259 3.27176 27.6439 2.57676 26.1373C2.11278 25.0976 1.85712 23.9771 1.82426 22.8391C1.82382 22.7947 1.83223 22.7507 1.84898 22.7096C1.86573 22.6686 1.8905 22.6312 1.92184 22.5998ZM1.27441 28.1773C1.18793 27.9288 1.33105 27.5497 1.66441 27.1048C2.03337 27.8058 2.53756 28.4266 3.14785 28.9316C2.87306 28.9059 2.60034 28.8615 2.3316 28.7987C1.73965 28.6552 1.36434 28.4346 1.27465 28.1776V28.1772L1.27441 28.1773ZM5.62496 8.125C5.25412 8.125 4.89161 8.23497 4.58327 8.441C4.27492 8.64702 4.0346 8.93986 3.89269 9.28247C3.75077 9.62508 3.71364 10.0021 3.78599 10.3658C3.85834 10.7295 4.03691 11.0636 4.29914 11.3258C4.56136 11.588 4.89545 11.7666 5.25917 11.839C5.62288 11.9113 5.99988 11.8742 6.34249 11.7323C6.6851 11.5904 6.97794 11.35 7.18397 11.0417C7.38999 10.7334 7.49996 10.3708 7.49996 10C7.4994 9.50289 7.30168 9.0263 6.95017 8.67479C6.59866 8.32328 6.12207 8.12556 5.62496 8.125ZM5.62496 10.625C5.50135 10.625 5.38051 10.5883 5.27773 10.5197C5.17495 10.451 5.09484 10.3534 5.04754 10.2392C5.00023 10.125 4.98785 9.99931 5.01197 9.87807C5.03609 9.75683 5.09561 9.64547 5.18302 9.55806C5.27043 9.47065 5.38179 9.41113 5.50303 9.38701C5.62427 9.36289 5.74993 9.37527 5.86414 9.42258C5.97834 9.46988 6.07595 9.54999 6.14463 9.65277C6.21331 9.75555 6.24996 9.87639 6.24996 10C6.24978 10.1657 6.18387 10.3246 6.0667 10.4417C5.94953 10.5589 5.79066 10.6248 5.62496 10.625ZM11.875 5.625C11.875 5.25416 11.765 4.89165 11.559 4.58331C11.3529 4.27496 11.0601 4.03464 10.7175 3.89273C10.3749 3.75081 9.99788 3.71368 9.63417 3.78603C9.27045 3.85838 8.93636 4.03695 8.67414 4.29918C8.41191 4.5614 8.23334 4.89549 8.16099 5.25921C8.08864 5.62292 8.12577 5.99992 8.26769 6.34253C8.4096 6.68514 8.64993 6.97798 8.95827 7.18401C9.26661 7.39003 9.62912 7.5 9.99996 7.5C10.4971 7.49944 10.9737 7.30172 11.3252 6.95021C11.6767 6.5987 11.8744 6.12211 11.875 5.625ZM9.37496 5.625C9.37496 5.50139 9.41162 5.38055 9.48029 5.27777C9.54897 5.17499 9.64658 5.09488 9.76078 5.04758C9.87499 5.00027 10.0007 4.98789 10.1219 5.01201C10.2431 5.03613 10.3545 5.09565 10.4419 5.18306C10.5293 5.27047 10.5888 5.38183 10.613 5.50307C10.6371 5.62431 10.6247 5.74997 10.5774 5.86418C10.5301 5.97838 10.45 6.07599 10.3472 6.14467C10.2444 6.21335 10.1236 6.25 9.99996 6.25C9.83426 6.24981 9.6754 6.18391 9.55823 6.06674C9.44106 5.94957 9.37515 5.7907 9.37496 5.625Z" fill="#1E1E1E"/>
<path d="M8.125 12.5001H9.375V13.7501H8.125V12.5001ZM7.5 18.1251H8.75V19.3751H7.5V18.1251ZM11.25 23.7501H12.5V25.0001H11.25V23.7501ZM1.25 11.8751H2.5V13.1251H1.25V11.8751ZM6.52836 28.6451L7.22172 27.6051C5.69422 26.5867 5.6268 25.6485 5.625 25.609C5.62555 25.6196 5.625 25.6251 5.625 25.6251H4.375C4.375 25.7872 4.43539 27.2501 6.52836 28.6451ZM12.6945 9.66326C12.9526 9.27269 13.2448 8.90566 13.5675 8.56646L12.683 7.68311C12.5991 7.76717 10.625 9.76568 10.625 11.8751H11.875C11.875 11.2377 12.1584 10.4729 12.6945 9.66326Z" fill="#1E1E1E"/>
</g>
<defs>
<clipPath id="clip0_1330_98950">
<rect width="40" height="40" fill="white"/>
</clipPath>
</defs>
</svg>
