<svg width="16" height="16" viewBox="0 0 16 16" fill="none" xmlns="http://www.w3.org/2000/svg">
<g clip-path="url(#clip0_1582_43320)">
<path d="M16 8C16 7.90281 15.9983 7.806 15.9948 7.70966C15.842 3.42588 12.3211 0 8 0C3.67891 0 0.158 3.42588 0.0051875 7.70966C0.00175 7.806 0 7.90281 0 8C0 12.4183 4.10944 15.7097 8 15.7097C11.9611 15.7097 16 12.4183 16 8Z" fill="#FF5876"/>
<path d="M8 15.4196C3.67897 15.4196 0.158688 11.9937 0.0058125 7.70996C0.00213334 7.8067 0.000195524 7.9035 0 8.0003C0 12.4186 3.58172 16.0003 8 16.0003C12.4183 16.0003 16 12.4186 16 8.0003C16 7.90305 15.9977 7.8064 15.9942 7.70999C15.8413 11.9937 12.321 15.4196 8 15.4196Z" fill="#E6485D"/>
<path d="M14.669 7.70944C14.517 4.15734 11.5891 1.32422 7.99961 1.32422C4.41008 1.32422 1.48227 4.15734 1.33027 7.70944C1.32614 7.80572 1.33024 14.2507 7.99961 14.2507C14.669 14.2507 14.6731 7.80572 14.669 7.70944Z" fill="#E4EEF9"/>
<path d="M7.99978 14.0952C4.41028 14.0952 1.48294 11.262 1.33088 7.70996C1.32658 7.80667 1.32436 7.90347 1.32422 8.00027C1.32422 11.6871 4.31297 14.6758 7.99978 14.6758C11.6866 14.6758 14.6753 11.6871 14.6753 8.0003C14.6753 7.90299 14.6728 7.80627 14.6687 7.70999C14.5166 11.2621 11.5893 14.0952 7.99978 14.0952Z" fill="#D5E0F2"/>
<path d="M10.4242 5.65791C10.2339 5.47026 9.92756 5.47235 9.73994 5.6626L8.6045 6.81376L8.71859 7.36179L9.24897 7.53847L10.4289 6.34219C10.6166 6.15194 10.6145 5.84557 10.4242 5.65791ZM7.31444 6.85782L4.73937 4.56307C4.53984 4.38525 4.234 4.40288 4.05622 4.60241C3.87844 4.80191 3.89603 5.10779 4.09556 5.28557L6.72134 7.62551L7.2685 7.44301L7.31444 6.85782Z" fill="#405B6C"/>
<path d="M11.4266 11.1198C11.3697 11.1199 11.3147 11.0998 11.2711 11.0631L8.20636 8.4888C8.15765 8.4474 8.1273 8.38841 8.12195 8.32471C8.11659 8.26101 8.13666 8.19778 8.17778 8.14883C8.2189 8.09988 8.27771 8.06919 8.34138 8.06347C8.40505 8.05775 8.4684 8.07746 8.51758 8.1183L11.5824 10.6926C11.6204 10.7246 11.6476 10.7674 11.6604 10.8154C11.6733 10.8633 11.671 10.9141 11.654 10.9607C11.637 11.0074 11.6061 11.0476 11.5654 11.0761C11.5247 11.1046 11.4763 11.1198 11.4266 11.1198Z" fill="#86DCFF"/>
<path d="M6.72266 7.6252L7.17453 8.02788L7.75484 7.8307L7.72338 7.22073L7.31578 6.85751C7.03219 7.02791 6.81753 7.30095 6.72266 7.6252ZM8.60578 6.81348L8.22159 7.20298V7.96754H8.82678L9.25028 7.5382C9.13391 7.22332 8.90181 6.96479 8.60578 6.81348Z" fill="#2D4456"/>
<path d="M8.77427 7.70938C8.65671 7.39595 8.3543 7.17285 7.9998 7.17285C7.6453 7.17285 7.34289 7.39595 7.22533 7.70938C7.19146 7.79973 7.22308 8.53632 7.9998 8.53632C8.77652 8.53632 8.80814 7.79973 8.77427 7.70938Z" fill="#FF5876"/>
<path d="M8.00073 8.24652C7.64623 8.24652 7.34395 8.0234 7.22639 7.70996C7.19156 7.80278 7.17375 7.90113 7.17383 8.00027C7.17383 8.45696 7.54405 8.82715 8.0007 8.82715C8.45739 8.82715 8.82758 8.45693 8.82758 8.00027C8.82758 7.89809 8.80892 7.8003 8.77505 7.70996C8.65752 8.02337 8.35523 8.24652 8.00073 8.24652Z" fill="#E6485D"/>
<path d="M8.24314 2.92391V2.17307C8.24314 2.10878 8.2176 2.04712 8.17214 2.00166C8.12668 1.9562 8.06503 1.93066 8.00074 1.93066C7.93644 1.93066 7.87479 1.9562 7.82933 2.00166C7.78387 2.04712 7.75833 2.10878 7.75833 2.17307V2.92391C7.75833 3.05779 7.86683 3.16632 8.00074 3.16632C8.13464 3.16632 8.24314 3.05779 8.24314 2.92391ZM7.75833 13.0756V13.8264C7.75833 13.9603 7.86683 14.0689 8.00074 14.0689C8.13464 14.0689 8.24314 13.9603 8.24314 13.8264V13.0756C8.24314 13.0113 8.2176 12.9497 8.17214 12.9042C8.12668 12.8587 8.06503 12.8332 8.00074 12.8332C7.93644 12.8332 7.87479 12.8587 7.82933 12.9042C7.78387 12.9497 7.75833 13.0113 7.75833 13.0756ZM13.8274 8.24216C13.8917 8.24216 13.9534 8.21663 13.9988 8.17117C14.0443 8.12571 14.0698 8.06405 14.0698 7.99976C14.0698 7.93547 14.0443 7.87381 13.9988 7.82835C13.9534 7.78289 13.8917 7.75735 13.8274 7.75735H13.0766C13.0123 7.75735 12.9506 7.78289 12.9052 7.82835C12.8597 7.87381 12.8342 7.93547 12.8342 7.99976C12.8342 8.06405 12.8597 8.12571 12.9052 8.17117C12.9506 8.21663 13.0123 8.24216 13.0766 8.24216H13.8274ZM2.17405 7.75735C2.04014 7.75735 1.93164 7.86588 1.93164 7.99976C1.93164 8.13363 2.04014 8.24216 2.17405 8.24216H2.92489C2.98918 8.24216 3.05084 8.21663 3.0963 8.17117C3.14176 8.12571 3.1673 8.06405 3.1673 7.99976C3.1673 7.93547 3.14176 7.87381 3.0963 7.82835C3.05084 7.78289 2.98918 7.75735 2.92489 7.75735H2.17405Z" fill="#405B6C"/>
</g>
<defs>
<clipPath id="clip0_1582_43320">
<rect width="16" height="16" fill="white"/>
</clipPath>
</defs>
</svg>
